<?xml version="1.0" encoding="UTF-8" standalone="no"?>
<!DOCTYPE svg PUBLIC "-//W3C//DTD SVG 1.1//EN" "http://www.w3.org/Graphics/SVG/1.1/DTD/svg11.dtd">
<svg width="100%" height="100%" viewBox="0 0 3508 3508" version="1.1" xmlns="http://www.w3.org/2000/svg" xmlns:xlink="http://www.w3.org/1999/xlink" xml:space="preserve" xmlns:serif="http://www.serif.com/" style="fill-rule:evenodd;clip-rule:evenodd;stroke-linejoin:round;stroke-miterlimit:2;">
    <g transform="matrix(22.413311,0,0,22.413311,0,0)">
        <path d="M146.496,0C149.152,-0 151.698,1.055 153.576,2.933C155.454,4.81 156.509,7.357 156.509,10.012L156.509,146.496C156.509,149.152 155.454,151.698 153.576,153.576C151.698,155.454 149.152,156.509 146.496,156.509L10.012,156.509C7.357,156.509 4.81,155.454 2.933,153.576C1.055,151.698 -0,149.152 -0,146.496L0,10.031C0,4.491 4.491,0 10.031,0L146.496,0Z" style="fill:rgb(16,16,16);"/>
    </g>
    <g transform="matrix(46.603315,0,0,46.603315,-60684.357447,-71293.238965)">
        <g transform="matrix(50.098787,0,0,50.098787,1368.121836,1583.129268)">
        </g>
        <text x="1311.369px" y="1583.129px" style="font-family:'BerlinSansFBDemi-Bold', 'Berlin Sans FB Demi', sans-serif;font-weight:700;font-size:50.099px;fill:rgb(255,207,168);">&lt;/&gt;</text>
    </g>
</svg>
